ISO-10303-21;
HEADER;
FILE_DESCRIPTION(('OpenStructure restricted wall exchange'),'2;1');
FILE_NAME('model.ifc','2026-09-12T00:00:00',(''),(''),'OpenStructure 0.1','OpenStructure','');
FILE_SCHEMA(('IFC4'));
ENDSEC;
DATA;
#1=IFCCARTESIANPOINT((0.0,0.0,0.0));
#2=IFCDIRECTION((1.0,0.0,0.));
#3=IFCDIRECTION((0.,0.,1.));
#4=IFCAXIS2PLACEMENT3D(#1,#3,#2);
#5=IFCGEOMETRICREPRESENTATIONCONTEXT($,'Model',3,1.E-7,#4,$);
#6=IFCSIUNIT(*,.LENGTHUNIT.,$,.METRE.);
#7=IFCUNITASSIGNMENT((#6));
#8=IFCPROJECT('0z8rIkZHz5zxojq_q2d1iu',$,'\X2\0052006F00740061007400650064002000770061006C006C007300202014002000E90074006100670065\X0\',$,$,$,$,(#5),#7);
#9=IFCCARTESIANPOINT((0.0,0.0,0.0));
#10=IFCDIRECTION((1.0,0.0,0.));
#11=IFCDIRECTION((0.,0.,1.));
#12=IFCAXIS2PLACEMENT3D(#9,#11,#10);
#13=IFCLOCALPLACEMENT($,#12);
#14=IFCSITE('2XC4nQLvf9Yx5wZoUdXOgA',$,'\X2\0053006900740065\X0\',$,$,#13,$,$,.ELEMENT.,$,$,$,$,$);
#15=IFCCARTESIANPOINT((0.0,0.0,0.0));
#16=IFCDIRECTION((1.0,0.0,0.));
#17=IFCDIRECTION((0.,0.,1.));
#18=IFCAXIS2PLACEMENT3D(#15,#17,#16);
#19=IFCLOCALPLACEMENT(#13,#18);
#20=IFCBUILDING('0391wsYqj0IhNCMQL2PDMK',$,'\X2\004200750069006C00640069006E0067\X0\',$,$,#19,$,$,.ELEMENT.,$,$,$);
#21=IFCCARTESIANPOINT((0.0,0.0,0.0));
#22=IFCDIRECTION((1.0,0.0,0.));
#23=IFCDIRECTION((0.,0.,1.));
#24=IFCAXIS2PLACEMENT3D(#21,#23,#22);
#25=IFCLOCALPLACEMENT(#19,#24);
#26=IFCBUILDINGSTOREY('0zpP2vQ3X5YR04CUEXfW3T',$,'\X2\00470072006F0075006E0064\X0\',$,$,#25,$,$,.ELEMENT.,0.0);
#27=IFCCARTESIANPOINT((0.0,0.0,4.2));
#28=IFCDIRECTION((1.0,0.0,0.));
#29=IFCDIRECTION((0.,0.,1.));
#30=IFCAXIS2PLACEMENT3D(#27,#29,#28);
#31=IFCLOCALPLACEMENT(#19,#30);
#32=IFCBUILDINGSTOREY('2bEx1P14b8eBS56iQ_fvw2',$,'\X2\00550070007000650072\X0\',$,$,#31,$,$,.ELEMENT.,4.2);
#33=IFCCARTESIANPOINT((-2.0,1.0,0.0));
#34=IFCDIRECTION((0.8,0.6,0.));
#35=IFCDIRECTION((0.,0.,1.));
#36=IFCAXIS2PLACEMENT3D(#33,#35,#34);
#37=IFCLOCALPLACEMENT(#25,#36);
#38=IFCCARTESIANPOINT((2.5,0.));
#39=IFCAXIS2PLACEMENT2D(#38,$);
#40=IFCRECTANGLEPROFILEDEF(.AREA.,$,#39,5.0,0.3);
#41=IFCCARTESIANPOINT((0.0,0.0,0.0));
#42=IFCDIRECTION((1.0,0.0,0.));
#43=IFCDIRECTION((0.,0.,1.));
#44=IFCAXIS2PLACEMENT3D(#41,#43,#42);
#45=IFCDIRECTION((0.,0.,1.));
#46=IFCEXTRUDEDAREASOLID(#40,#44,#45,3.5);
#47=IFCSHAPEREPRESENTATION(#5,'Body','SweptSolid',(#46));
#48=IFCPRODUCTDEFINITIONSHAPE($,$,(#47));
#49=IFCWALL('1hRexgfr1B8PYTTGoyYBeu',$,'\X2\0052006F00740061007400650064002000770061006C006C\X0\',$,$,#37,#48,$,.NOTDEFINED.);
#50=IFCCARTESIANPOINT((8.0,-3.0,0.0));
#51=IFCDIRECTION((-0.6,-0.8,0.));
#52=IFCDIRECTION((0.,0.,1.));
#53=IFCAXIS2PLACEMENT3D(#50,#52,#51);
#54=IFCLOCALPLACEMENT(#31,#53);
#55=IFCCARTESIANPOINT((2.5,0.));
#56=IFCAXIS2PLACEMENT2D(#55,$);
#57=IFCRECTANGLEPROFILEDEF(.AREA.,$,#56,5.0,0.3);
#58=IFCCARTESIANPOINT((0.0,0.0,0.0));
#59=IFCDIRECTION((1.0,0.0,0.));
#60=IFCDIRECTION((0.,0.,1.));
#61=IFCAXIS2PLACEMENT3D(#58,#60,#59);
#62=IFCDIRECTION((0.,0.,1.));
#63=IFCEXTRUDEDAREASOLID(#57,#61,#62,3.5);
#64=IFCSHAPEREPRESENTATION(#5,'Body','SweptSolid',(#63));
#65=IFCPRODUCTDEFINITIONSHAPE($,$,(#64));
#66=IFCWALL('31N$41ugfF3BMrHRJvEU5Z',$,'\X2\0052006F00740061007400650064002000770061006C006C\X0\',$,$,#54,#65,$,.NOTDEFINED.);
#67=IFCRELAGGREGATES('3GYATxutP6kwF0iDacAgEa',$,$,$,#8,(#14));
#68=IFCRELAGGREGATES('2RlAjDaMv7ceHPso54fs4J',$,$,$,#14,(#20));
#69=IFCRELAGGREGATES('2uaO$xl911DR0W9HDJWi2X',$,$,$,#20,(#26,#32));
#70=IFCRELCONTAINEDINSPATIALSTRUCTURE('3PjGL3HWP90uuztnSQ_oYl',$,$,$,(#49),#26);
#71=IFCRELCONTAINEDINSPATIALSTRUCTURE('1KeFtFMur2$9bhx79HzKKJ',$,$,$,(#66),#32);
ENDSEC;
END-ISO-10303-21;
