ISO-10303-21;
HEADER;
FILE_DESCRIPTION(('OpenStructure restricted wall exchange'),'2;1');
FILE_NAME('model.ifc','2026-09-12T00:00:00',(''),(''),'OpenStructure 0.1','OpenStructure','');
FILE_SCHEMA(('IFC4'));
ENDSEC;
DATA;
#1=IFCCARTESIANPOINT((0.0,0.0,0.0));
#2=IFCDIRECTION((1.0,0.0,0.));
#3=IFCDIRECTION((0.,0.,1.));
#4=IFCAXIS2PLACEMENT3D(#1,#3,#2);
#5=IFCGEOMETRICREPRESENTATIONCONTEXT($,'Model',3,1.E-7,#4,$);
#6=IFCSIUNIT(*,.LENGTHUNIT.,$,.METRE.);
#7=IFCUNITASSIGNMENT((#6));
#8=IFCPROJECT('3rL2mUMVTB5fq$TDAXajKT',$,'\X2\0055006E007400690074006C00650064002000700072006F006A006500630074\X0\',$,$,$,$,(#5),#7);
#9=IFCCARTESIANPOINT((0.0,0.0,0.0));
#10=IFCDIRECTION((1.0,0.0,0.));
#11=IFCDIRECTION((0.,0.,1.));
#12=IFCAXIS2PLACEMENT3D(#9,#11,#10);
#13=IFCLOCALPLACEMENT($,#12);
#14=IFCSITE('2s2ZShnof548G6GS_T7lP8',$,'\X2\0053006900740065\X0\',$,$,#13,$,$,.ELEMENT.,$,$,$,$,$);
#15=IFCCARTESIANPOINT((0.0,0.0,0.0));
#16=IFCDIRECTION((1.0,0.0,0.));
#17=IFCDIRECTION((0.,0.,1.));
#18=IFCAXIS2PLACEMENT3D(#15,#17,#16);
#19=IFCLOCALPLACEMENT(#13,#18);
#20=IFCBUILDING('1WFN9AZpL8PPWTOkT$n7zY',$,'\X2\004200750069006C00640069006E0067\X0\',$,$,#19,$,$,.ELEMENT.,$,$,$);
#21=IFCCARTESIANPOINT((0.0,0.0,3.0));
#22=IFCDIRECTION((1.0,0.0,0.));
#23=IFCDIRECTION((0.,0.,1.));
#24=IFCAXIS2PLACEMENT3D(#21,#23,#22);
#25=IFCLOCALPLACEMENT(#19,#24);
#26=IFCBUILDINGSTOREY('0bVs2vqWL98OaiDF0Aq4t7',$,'\X2\00550070007000650072\X0\',$,$,#25,$,$,.ELEMENT.,3.0);
#27=IFCCARTESIANPOINT((0.0,0.0,0.0));
#28=IFCDIRECTION((1.0,0.0,0.));
#29=IFCDIRECTION((0.,0.,1.));
#30=IFCAXIS2PLACEMENT3D(#27,#29,#28);
#31=IFCLOCALPLACEMENT(#19,#30);
#32=IFCBUILDINGSTOREY('3L9b9tdmLEOOVt_QW4C68s',$,'\X2\00470072006F0075006E0064\X0\',$,$,#31,$,$,.ELEMENT.,0.0);
#33=IFCCARTESIANPOINT((0.0,0.0,0.0));
#34=IFCDIRECTION((1.0,0.0,0.));
#35=IFCDIRECTION((0.,0.,1.));
#36=IFCAXIS2PLACEMENT3D(#33,#35,#34);
#37=IFCLOCALPLACEMENT(#25,#36);
#38=IFCCARTESIANPOINT((3.5,0.));
#39=IFCAXIS2PLACEMENT2D(#38,$);
#40=IFCRECTANGLEPROFILEDEF(.AREA.,$,#39,7.0,0.3);
#41=IFCCARTESIANPOINT((0.0,0.0,0.0));
#42=IFCDIRECTION((1.0,0.0,0.));
#43=IFCDIRECTION((0.,0.,1.));
#44=IFCAXIS2PLACEMENT3D(#41,#43,#42);
#45=IFCDIRECTION((0.,0.,1.));
#46=IFCEXTRUDEDAREASOLID(#40,#44,#45,3.5);
#47=IFCSHAPEREPRESENTATION(#5,'Body','SweptSolid',(#46));
#48=IFCPRODUCTDEFINITIONSHAPE($,$,(#47));
#49=IFCWALL('0mIXYnQ9PBNA53OcP10bZu',$,'\X2\004500780061006D0070006C0065002000770061006C006C\X0\',$,$,#37,#48,$,.NOTDEFINED.);
#50=IFCRELAGGREGATES('1a6GY6yuP6uuwE_eBwazv$',$,$,$,#8,(#14));
#51=IFCRELAGGREGATES('2PnAYROPDClwIV_dNe1p_Y',$,$,$,#14,(#20));
#52=IFCRELAGGREGATES('2jl27UIkf9GuZJz1B2xsYC',$,$,$,#20,(#26,#32));
#53=IFCRELCONTAINEDINSPATIALSTRUCTURE('3R11F_GMn4rhu4wXs7ep2j',$,$,$,(#49,#72),#26);
#54=IFCWINDOWTYPE('0000000000000000000001',$,'Shared window','OpenStructure.WindowType.v2;default_sill=0.9',$,$,$,$,$,.WINDOW.,.SINGLE_PANEL.,$,$);
#55=IFCCARTESIANPOINT((1.0,0.0,0.9));
#56=IFCAXIS2PLACEMENT3D(#55,#3,#2);
#57=IFCLOCALPLACEMENT(#37,#56);
#58=IFCCARTESIANPOINT((0.4,0.6));
#59=IFCAXIS2PLACEMENT2D(#58,$);
#60=IFCRECTANGLEPROFILEDEF(.AREA.,$,#59,0.8,1.2);
#61=IFCCARTESIANPOINT((0.0,0.15,0.0));
#62=IFCDIRECTION((0.,-1.,0.));
#63=IFCAXIS2PLACEMENT3D(#61,#62,#2);
#64=IFCEXTRUDEDAREASOLID(#60,#63,#3,0.3);
#65=IFCSHAPEREPRESENTATION(#5,'Body','SweptSolid',(#64));
#66=IFCPRODUCTDEFINITIONSHAPE($,$,(#65));
#67=IFCOPENINGELEMENT('0000000000000000000002',$,'Window',$,$,#57,#66,$,.OPENING.);
#68=IFCRELVOIDSELEMENT('0000000000000000000003',$,$,$,#49,#67);
#69=IFCCARTESIANPOINT((0.0,0.0,0.0));
#70=IFCAXIS2PLACEMENT3D(#69,#3,#2);
#71=IFCLOCALPLACEMENT(#57,#70);
#72=IFCWINDOW('0000000000000000000004',$,'Window','OpenStructure.Typed.v2;sill=inherit',$,#71,$,$,1.2,0.8,$,$,$);
#73=IFCRELFILLSELEMENT('0000000000000000000005',$,$,$,#67,#72);
#74=IFCRELDEFINESBYTYPE('0000000000000000000006',$,$,$,(#72),#54);
ENDSEC;
END-ISO-10303-21;
